<?xml version="1.0" encoding="UTF-8"?>
<svg version="1.1" xmlns="http://www.w3.org/2000/svg" width="192" height="192">
<path d="M0 0 C63.36 0 126.72 0 192 0 C192 63.36 192 126.72 192 192 C128.64 192 65.28 192 0 192 C0 128.64 0 65.28 0 0 Z " fill="#5B748D" transform="translate(0,0)"/>
<path d="M0 0 C21.32330729 -0.09357327 42.64658058 -0.16404281 63.97005177 -0.20724869 C73.87162465 -0.227846 83.77306972 -0.25591233 93.67456055 -0.30175781 C102.30790425 -0.34171241 110.94115536 -0.36745338 119.57458895 -0.37635398 C124.14305667 -0.38155415 128.71125954 -0.39371708 133.27964211 -0.42292023 C137.58638507 -0.4502258 141.89275602 -0.45841465 146.19957733 -0.45243073 C147.7736711 -0.45352423 149.34777832 -0.46138759 150.9217968 -0.4768219 C163.4842149 -0.59388264 173.72485169 0.80644329 183.0546875 9.78515625 C189.2513001 16.84033566 191.10805162 23.68288669 191.14717102 32.97590637 C191.15790398 34.73574104 191.15790398 34.73574104 191.16885376 36.53112793 C191.17154266 37.80452026 191.17423157 39.0779126 191.17700195 40.38989258 C191.18327401 41.75546946 191.18992146 43.12104466 191.19691467 44.48661804 C191.21786409 48.95591056 191.22830649 53.42520308 191.23828125 57.89453125 C191.24233181 59.43778691 191.24644882 60.9810424 191.25063133 62.52429771 C191.26966066 69.774609 191.28389804 77.02491024 191.2922433 84.27524167 C191.30201636 92.62633584 191.32834701 100.97716501 191.36874419 109.32816583 C191.39895323 115.79631672 191.41371658 122.2643918 191.41702431 128.73261184 C191.41936871 132.58999182 191.42824969 136.44708796 191.45348549 140.30439186 C191.47685652 143.93492863 191.48096367 147.56499641 191.47072411 151.19558907 C191.469997 153.15119586 191.48902281 155.10677934 191.50878906 157.06228638 C191.44822367 167.36916336 189.06186023 174.59116714 181.98046875 182.140625 C175.71989627 188.01840114 170.6274131 190.72611387 162 191 C164.96364327 188.32316092 167.78023671 186.57606336 171.4375 185.0625 C177.821719 182.31580113 182.3295613 178.90203548 185.18727303 172.37789917 C187.9837077 164.19601288 187.14430535 154.52785256 187.12939453 145.9921875 C187.13114685 144.74028625 187.13289917 143.48838501 187.13470459 142.19854736 C187.13832632 138.79772046 187.13751309 135.39695521 187.1343255 131.9961319 C187.13177217 128.41652857 187.13414766 124.83692766 187.13571167 121.25732422 C187.13752475 115.2490187 187.13514974 109.24072552 187.13037109 103.23242188 C187.12493014 96.31200356 187.12669341 89.39161473 187.1321975 82.47119713 C187.13675326 76.50142352 187.13736717 70.53165872 187.13475883 64.56188393 C187.13320956 61.00867862 187.1329649 57.45548711 187.13629532 53.90228271 C187.13975279 49.93744789 187.13494421 45.97264539 187.12939453 42.0078125 C187.13243088 40.26966278 187.13243088 40.26966278 187.13552856 38.49639893 C187.5464169 23.48986199 187.5464169 23.48986199 180.890625 10.74609375 C178.34550085 8.39553488 176.4187487 7.55816305 173 7 C171.741875 6.70222656 170.48375 6.40445312 169.1875 6.09765625 C166.71424429 5.79723333 165.48731813 5.7037828 163.33959961 7.00927734 C161.73381391 8.56774948 160.33556209 10.19039407 158.9375 11.9375 C158.42509766 12.535625 157.91269531 13.13375 157.38476562 13.75 C156.36697526 14.94149669 155.35931887 16.1417365 154.36279297 17.35107422 C152.6286472 19.44932225 150.81629365 21.47278192 149 23.5 C148.4740625 24.11359375 147.948125 24.7271875 147.40625 25.359375 C146.13140049 26.84669943 144.8177135 28.30051515 143.5 29.75 C141.80932181 31.83532338 141.80932181 31.83532338 142 34.0625 C142.93807001 36.133664 142.93807001 36.133664 144.875 37.8125 C150.25466473 43.35039016 150.32818559 49.12588494 150.26367188 56.50195312 C150.23853516 57.63568359 150.21339844 58.76941406 150.1875 59.9375 C150.17396484 61.09830078 150.16042969 62.25910156 150.14648438 63.45507812 C150.1113141 66.30387052 150.06209287 69.15168844 150 72 C149.34 72 148.68 72 148 72 C147.72542969 72.73476562 147.45085937 73.46953125 147.16796875 74.2265625 C144.13446896 81.42985633 139.10955593 88.10290749 133 93 C132.34 93 131.68 93 131 93 C130.79375 93.825 130.5875 94.65 130.375 95.5 C126.70924913 104.83100221 119.51959524 111.53706216 110.625 115.875 C101.47921577 119.42531071 90.54575549 119.7455462 81.3125 116.25 C77.63843351 114.49147245 74.2767626 112.41445665 71 110 C74.16856707 105.83559756 75.94229714 103.68665399 81 102 C83.58374023 101.82055664 83.58374023 101.82055664 86.30859375 101.91015625 C87.30310547 101.93013672 88.29761719 101.95011719 89.32226562 101.97070312 C91.39530458 102.03178954 93.46822952 102.09687927 95.54101562 102.16601562 C101.14020915 102.27111376 105.19412902 102.26140673 110 99 C113.41867666 95.23945568 113.59054087 91.26016828 113.39453125 86.3671875 C113.12018387 83.77961403 113.12018387 83.77961403 111.1875 81.125 C106.7490108 78.1660072 102.08345674 76.54549207 97 75 C95.90365234 74.63648437 95.90365234 74.63648437 94.78515625 74.265625 C94.19605469 74.17796875 93.60695313 74.0903125 93 74 C92.34 74.66 91.68 75.32 91 76 C89 76.66666667 87 77.33333333 85 78 C84.34 78.66 83.68 79.32 83 80 C81 79.9375 81 79.9375 79 79 C76.58842516 75.3252193 76.62461604 71.52031152 77.18359375 67.2890625 C78.90169096 62.47181387 83.53580655 59.23209673 88 57 C93.25271884 56.69471378 98.47478252 56.86323302 103.6875 57.5625 C107.98255045 58.1207015 111.73350141 57.69815431 116 57 C115.67 58.65 115.34 60.3 115 62 C116.00593243 60.8803014 117.0045849 59.7540588 118 58.625 C118.556875 57.99851563 119.11375 57.37203125 119.6875 56.7265625 C121.20172487 55.09610167 121.20172487 55.09610167 121 53 C117.83922693 50.71686613 114.40424097 48.89405099 111 47 C109.948125 46.38125 108.89625 45.7625 107.8125 45.125 C97.75680582 42.15774598 87.26317234 43.21402762 78 48 C62.93961495 56.55703696 49.72452383 66.96572864 43.8203125 83.81591797 C42.3019348 89.7095733 42.38445911 95.57209881 42.4375 101.625 C42.41365234 102.883125 42.38980469 104.14125 42.36523438 105.4375 C42.37774937 113.39703488 43.52159674 118.45855081 48 125 C50.01890629 128.60485857 50.01890629 128.60485857 49.8828125 131.44921875 C48.77682963 134.64482412 47.20441653 136.36858672 44.875 138.8125 C44.05386719 139.69035156 43.23273437 140.56820312 42.38671875 141.47265625 C41.59910156 142.30667969 40.81148437 143.14070312 40 144 C38.88774734 145.24281054 37.78290397 146.49231396 36.6875 147.75 C36.13191406 148.38679687 35.57632813 149.02359375 35.00390625 149.6796875 C33.40201384 151.53451029 31.80650126 153.39422688 30.21484375 155.2578125 C29.71162598 155.8468335 29.2084082 156.43585449 28.68994141 157.04272461 C27.64870999 158.26182629 26.60801753 159.4813885 25.56787109 160.70141602 C21.69163943 165.23346549 17.71266238 169.65038898 13.64453125 174.01171875 C11.80007831 175.998153 11.80007831 175.998153 11 179 C12.37492804 182.1668838 12.37492804 182.1668838 14 185 C7.84201446 182.2262522 4.3356624 177.47018109 1.84088135 171.27079773 C-0.74059896 163.82639236 -0.53028497 156.37405558 -0.45410156 148.60473633 C-0.45297115 146.977519 -0.45361072 145.35029964 -0.45587158 143.7230835 C-0.45701212 139.33732901 -0.43361081 134.95201841 -0.40557575 130.56636643 C-0.38045106 125.97132552 -0.37821142 121.37627272 -0.37347412 116.78117371 C-0.36107671 108.09390587 -0.32829919 99.40684108 -0.28807616 90.71966237 C-0.24325739 80.82361463 -0.22134607 70.92755683 -0.20129442 61.03143275 C-0.15956346 40.68750882 -0.08927474 20.34376724 0 0 Z " fill="#7D92A6" transform="translate(0,0)"/>
<path d="M0 0 C1.35084144 0.97621984 2.69267667 1.96622851 4 3 C2.33248852 6.94139078 -0.22710649 9.7892812 -3 13 C-3 10 -3 10 -2 7 C-3.134375 7.350625 -4.26875 7.70125 -5.4375 8.0625 C-9.40950705 9.05898598 -12.55269072 8.87161687 -16.5703125 8.30859375 C-22.60649258 7.54194065 -28.00488062 6.96681318 -33.5 9.8125 C-34.325 10.534375 -35.15 11.25625 -36 12 C-36.52980469 12.44988281 -37.05960938 12.89976563 -37.60546875 13.36328125 C-40.1619131 16.36370193 -40.02672865 20.18448561 -40 24 C-39.21136479 26.94661406 -39.21136479 26.94661406 -38 29 C-35.13275314 28.42655063 -34.1385485 28.1385485 -32 26 C-30.33333333 25.66666667 -28.66666667 25.33333333 -27 25 C-26.34 24.34 -25.68 23.68 -25 23 C-8.21142163 27.68286756 -8.21142163 27.68286756 -4 34 C-3.27246601 38.91508428 -3.49564069 42.93308607 -5.625 47.4375 C-8.85841676 50.92618651 -11.68148333 52.82765678 -16.54541016 53.18920898 C-20.56541101 53.18680755 -24.57321399 53.03514991 -28.58984375 52.8828125 C-35.21968806 52.72762759 -39.73786816 53.06408134 -44.875 57.6875 C-45.24625 58.120625 -45.6175 58.55375 -46 59 C-44.6312552 59.96724632 -43.25464396 60.9233644 -41.875 61.875 C-41.10929687 62.40867187 -40.34359375 62.94234375 -39.5546875 63.4921875 C-31.05616761 68.50813349 -19.96841433 68.44831725 -10.5390625 66.16015625 C0.18030134 62.06805977 6.43643573 55.74013083 11.46484375 45.61328125 C13.50642864 42.13791154 16.05710555 39.97931556 19.17578125 37.484375 C25.16092229 32.61423883 28.13301972 26.32430724 30 19 C32.6234151 22.93512265 32.32397132 26.34029363 32.3359375 30.91015625 C32.3459227 32.23327065 32.3459227 32.23327065 32.35610962 33.58311462 C32.36623973 35.45341916 32.37092653 37.32375986 32.37060547 39.1940918 C32.37494685 42.02780682 32.41117279 44.85992328 32.44921875 47.69335938 C32.51994903 58.86917617 32.42041097 68.1333971 24.75 76.9375 C18.3494254 83.38560362 10.05101799 83.40267759 1.52505493 83.46813965 C0.02972464 83.46940717 -1.46560691 83.4695836 -2.9609375 83.46875 C-4.51738759 83.47586372 -6.0738351 83.48356446 -7.63027954 83.49182129 C-10.88315124 83.5052208 -14.13578042 83.50685549 -17.38867188 83.50097656 C-21.53339199 83.49508557 -25.67693866 83.52566701 -29.82143211 83.56609344 C-33.03362164 83.59208966 -36.24553306 83.59483715 -39.45781326 83.59120178 C-40.98467582 83.59288201 -42.51155278 83.60241758 -44.038311 83.62034607 C-53.62588295 83.7205538 -62.14529549 83.27786378 -69.60043335 76.55725098 C-76.4440821 68.90650997 -76.49140268 61.56888558 -76.4375 51.8125 C-76.45748047 50.54857422 -76.47746094 49.28464844 -76.49804688 47.98242188 C-76.49261506 37.48271978 -74.65377037 28.73121816 -68.1875 20.25 C-67.56230469 19.40953125 -66.93710938 18.5690625 -66.29296875 17.703125 C-49.18612711 -2.46371386 -24.35629271 -15.18609972 0 0 Z " fill="#6D8196" transform="translate(118,50)"/>
<path d="M0 0 C4.5545665 2.27728325 5.05735097 3.37149521 7.1875 7.8125 C7.69667969 8.85019531 8.20585937 9.88789062 8.73046875 10.95703125 C12.41327586 19.78443659 12.64112869 32.0304397 9.03515625 40.953125 C3.72635471 51.45052879 -3.40944614 58.86465809 -14.51953125 63.1171875 C-24.73401841 65.70806752 -35.73500803 65.2840802 -45 60 C-47.0950938 58.74717623 -49.03145959 57.45050346 -51 56 C-47.83143293 51.83559756 -46.05770286 49.68665399 -41 48 C-38.41625977 47.82055664 -38.41625977 47.82055664 -35.69140625 47.91015625 C-34.69689453 47.93013672 -33.70238281 47.95011719 -32.67773438 47.97070312 C-30.60469542 48.03178954 -28.53177048 48.09687927 -26.45898438 48.16601562 C-20.85979085 48.27111376 -16.80587098 48.26140673 -12 45 C-8.58132334 41.23945568 -8.40945913 37.26016828 -8.60546875 32.3671875 C-8.87981613 29.77961403 -8.87981613 29.77961403 -10.8125 27.125 C-15.2509892 24.1660072 -19.91654326 22.54549207 -25 21 C-26.09634766 20.63648438 -26.09634766 20.63648438 -27.21484375 20.265625 C-27.80394531 20.17796875 -28.39304687 20.0903125 -29 20 C-29.66 20.66 -30.32 21.32 -31 22 C-33 22.66666667 -35 23.33333333 -37 24 C-37.66 24.66 -38.32 25.32 -39 26 C-41 25.9375 -41 25.9375 -43 25 C-45.41157484 21.3252193 -45.37538396 17.52031152 -44.81640625 13.2890625 C-43.09830904 8.47181387 -38.46419345 5.23209673 -34 3 C-28.74728116 2.69471378 -23.52521748 2.86323302 -18.3125 3.5625 C-14.01744955 4.1207015 -10.26649859 3.69815431 -6 3 C-6.33 4.65 -6.66 6.3 -7 8 C-4.69 5.36 -2.38 2.72 0 0 Z " fill="#586F88" transform="translate(122,54)"/>
<path d="M0 0 C2.6234151 3.93512265 2.32397132 7.34029363 2.3359375 11.91015625 C2.3425943 12.79223251 2.3492511 13.67430878 2.35610962 14.58311462 C2.36623973 16.45341916 2.37092653 18.32375986 2.37060547 20.1940918 C2.37494685 23.02780682 2.41117279 25.85992328 2.44921875 28.69335938 C2.51994903 39.86917617 2.42041097 49.1333971 -5.25 57.9375 C-10.69426932 63.42219706 -17.18602232 64.24917787 -24.5625 64.29296875 C-27.37569262 64.28437697 -30.18730029 64.23823965 -33 64.1875 C-34.45701743 64.17242741 -35.91404993 64.15874355 -37.37109375 64.14648438 C-40.91437925 64.11367903 -44.45709171 64.06203907 -48 64 C-46.68 63.34 -45.36 62.68 -44 62 C-44.66 61.7525 -45.32 61.505 -46 61.25 C-49.76360907 59.68182955 -53.3711424 57.85494954 -57 56 C-57 54.02 -57 52.04 -57 50 C-55.51306641 50.08121094 -55.51306641 50.08121094 -53.99609375 50.1640625 C-49.52046118 49.98031219 -46.19121078 48.98989454 -42.0625 47.375 C-41.35883301 47.10284668 -40.65516602 46.83069336 -39.93017578 46.55029297 C-30.15404394 42.6176269 -23.0136652 36.7122543 -18.625 26.9375 C-16.62054089 23.31405469 -14.08246584 21.28747153 -10.9296875 18.66015625 C-4.9808492 13.54222857 -1.91205252 7.50112912 0 0 Z " fill="#F2A067" transform="translate(148,69)"/>
<path d="M0 0 C3.83162338 2.39552849 6.00696647 4.21397493 7.82421875 8.40625 C6.81359375 8.24125 5.80296875 8.07625 4.76171875 7.90625 C-14.80805975 5.58147135 -27.87371491 10.81935362 -43.04296875 22.640625 C-52.18326118 30.47516136 -57.65935628 38.91780568 -61.17578125 50.40625 C-61.50578125 50.40625 -61.83578125 50.40625 -62.17578125 50.40625 C-62.27514004 44.71375541 -62.34748048 39.02177282 -62.39550781 33.32861328 C-62.41554266 31.39460448 -62.44277854 29.46065565 -62.47753906 27.52685547 C-62.52641696 24.73650257 -62.54883144 21.94695499 -62.56640625 19.15625 C-62.59737396 17.872948 -62.59737396 17.872948 -62.62896729 16.5637207 C-62.63152491 9.61993958 -60.81381669 4.41665227 -56.2109375 -0.8359375 C-55.55996094 -1.37476563 -54.90898438 -1.91359375 -54.23828125 -2.46875 C-53.58988281 -3.02304687 -52.94148438 -3.57734375 -52.2734375 -4.1484375 C-38.18663473 -13.85442824 -14.01436649 -7.03304001 0 0 Z " fill="#3ACDE8" transform="translate(104.17578125,36.59375)"/>
<path d="M0 0 C39.6 0 79.2 0 120 0 C119.67 0.66 119.34 1.32 119 2 C111.2667176 3.36706764 103.41587629 3.11737474 95.58845329 3.07516479 C93.17017107 3.06226164 90.75194448 3.05585053 88.33363342 3.05102539 C83.2015638 3.03966633 78.06954051 3.02042388 72.9375 3 C66.98168308 2.9763155 61.02589289 2.95595386 55.07003975 2.94406128 C52.69932063 2.93762749 50.32868473 2.92512302 47.95799255 2.91235352 C46.49144562 2.90871784 45.02489794 2.90536651 43.55834961 2.90234375 C42.28865829 2.89710693 41.01896698 2.89187012 39.71080017 2.88647461 C29.91793931 3.18606993 23.50041075 4.97814794 16.64257812 12.20507812 C16.03865234 12.85927734 15.43472656 13.51347656 14.8125 14.1875 C14.19697266 14.82236328 13.58144531 15.45722656 12.94726562 16.11132812 C8.84664972 20.50516251 6.76549453 24.25455905 5 30 C4.67 30.99 4.34 31.98 4 33 C4.33 33.99 4.66 34.98 5 36 C5.09476705 37.51591521 5.13072327 39.03581445 5.1328125 40.5546875 C5.13490723 41.5355835 5.13700195 42.51647949 5.13916016 43.52709961 C5.1344873 44.63190674 5.12981445 45.73671387 5.125 46.875 C5.12161621 48.05521729 5.11823242 49.23543457 5.11474609 50.45141602 C5.04975677 62.77747332 4.88002085 75.10301895 4.68060303 87.42755127 C4.6440094 89.73752919 4.60996427 92.04754913 4.57867432 94.35760498 C4.37449141 109.0027499 3.64479812 123.44324676 2 138 C1.67 138 1.34 138 1 138 C-0.29780556 124.23439499 -0.13144515 110.45513832 -0.10139394 96.64181256 C-0.09506721 93.23459403 -0.09454933 89.82737426 -0.09336853 86.42015076 C-0.09028232 79.99264392 -0.08210615 73.56515445 -0.07201904 67.1376552 C-0.05966596 59.08851828 -0.05425375 51.03937843 -0.04882812 42.99023438 C-0.03913863 28.66014278 -0.0190983 14.33008899 0 0 Z " fill="#A0B0BE" transform="translate(0,0)"/>
<path d="M0 0 C2 2 2 2 2.0546875 4.80078125 C1.99539062 5.95964844 1.93609375 7.11851563 1.875 8.3125 C1.74184024 19.15392412 4.68254115 27.9530364 10.92578125 36.78125 C12 39 12 39 11.8984375 41.5390625 C10.83529732 44.45114213 9.58779952 45.78605835 7.3125 47.875 C3.59308476 51.40006742 0.27972036 55.06433557 -3 59 C-6.22685006 58.3996558 -8.38466511 57.76835468 -10.4765625 55.15625 C-16.47974049 45.46691008 -16.55066318 34.68067328 -14.55175781 23.49072266 C-12.13470593 13.63169524 -8.1446111 6.35279665 0 0 Z " fill="#9479E5" transform="translate(57,69)"/>
<path d="M0 0 C4.86971402 2.36986083 7.21978818 4.56286852 9.36938477 9.69311523 C10.72370501 14.64742106 10.30043407 19.84388398 10.1875 24.9375 C10.16719727 26.67870117 10.16719727 26.67870117 10.14648438 28.45507812 C10.1113141 31.30387052 10.06209287 34.15168844 10 37 C9.34 37 8.68 37 8 37 C7.72542969 37.73476562 7.45085937 38.46953125 7.16796875 39.2265625 C4.07976122 46.55976434 -0.97778561 52.84047197 -7 58 C-7.33 58 -7.66 58 -8 58 C-7.97643433 57.16190796 -7.97643433 57.16190796 -7.95239258 56.30688477 C-7.88925076 53.7255301 -7.85076296 51.1443387 -7.8125 48.5625 C-7.78736328 47.68400391 -7.76222656 46.80550781 -7.73632812 45.90039062 C-7.63392651 36.65011149 -10.19502555 29.79577866 -15.109375 22.04296875 C-16.23492299 19.46111963 -15.94990157 18.62047025 -15 16 C-13.50952148 14.07714844 -13.50952148 14.07714844 -11.62109375 12.109375 C-10.61079102 11.04589844 -10.61079102 11.04589844 -9.58007812 9.9609375 C-8.87302734 9.23132812 -8.16597656 8.50171875 -7.4375 7.75 C-6.72658203 7.00492188 -6.01566406 6.25984375 -5.28320312 5.4921875 C-3.52855956 3.65511102 -1.76740606 1.82478731 0 0 Z " fill="#9E68D5" transform="translate(140,35)"/>
<path d="M0 0 C8.43256745 -0.09308658 16.86491667 -0.16395923 25.29787254 -0.20724869 C29.21455539 -0.22803592 33.13088415 -0.25618872 37.04736328 -0.30175781 C40.83401546 -0.34553565 44.62032921 -0.3692036 48.40721512 -0.37950897 C49.84478704 -0.38684359 51.28234251 -0.40116499 52.71976852 -0.42292023 C60.94101455 -0.54228698 68.80150481 -0.51339431 76 4 C76.99 5.485 76.99 5.485 78 7 C77.443125 7.53367187 76.88625 8.06734375 76.3125 8.6171875 C70.72130487 14.07615842 65.75096938 19.79914351 61 26 C57.75069568 24.78362265 54.94109947 23.43083973 52.0625 21.5 C48.81531842 19.41120578 45.74753532 18.03057221 42 17 C42 16.67 42 16.34 42 16 C44.31 16.33 46.62 16.66 49 17 C38.4007572 5.77727233 23.57785466 1.9643624 8.5 1.375 C7.67757812 1.33632813 6.85515625 1.29765625 6.0078125 1.2578125 C4.0055299 1.16468308 2.00279738 1.08131015 0 1 C0 0.67 0 0.34 0 0 Z " fill="#6B9DEB" transform="translate(63,28)"/>
<path d="M0 0 C0.66 0 1.32 0 2 0 C2 0.66 2 1.32 2 2 C2.66 2.2475 3.32 2.495 4 2.75 C7.13242603 4.05517751 10.11839936 5.54353274 13.1328125 7.09765625 C17.25069516 9.08767904 21.20444273 9.30716247 25.6875 9.5625 C26.38939453 9.60568359 27.09128906 9.64886719 27.81445312 9.69335938 C29.54275206 9.7991736 31.2713511 9.90006581 33 10 C29.01647791 12.30903272 26.49885947 11.86516528 22 11 C21.94250443 13.91630113 21.94250443 13.91630113 23 17 C25.43964285 18.344293 27.39366357 19.16755795 30 20 C31.48111377 20.55735292 32.9603351 21.11976402 34.4375 21.6875 C35.613125 22.120625 36.78875 22.55375 38 23 C38 23.33 38 23.66 38 24 C29.99316647 25.31858436 22.03011421 25.29636278 13.93139648 25.35009766 C12.10737342 25.36665165 10.28341507 25.39393456 8.4597168 25.43212891 C-11.77362208 25.85232466 -11.77362208 25.85232466 -19 20 C-19.33 19.34 -19.66 18.68 -20 18 C-17.525 18.99 -17.525 18.99 -15 20 C-14.67 19.01 -14.34 18.02 -14 17 C-11.72226454 14.58421997 -9.33815745 12.31968934 -6.92578125 10.0390625 C-6.20777344 9.34554687 -5.48976563 8.65203125 -4.75 7.9375 C-4.06421875 7.28652344 -3.3784375 6.63554688 -2.671875 5.96484375 C-0.93164751 3.91966985 -0.39722943 2.62288259 0 0 Z " fill="#D775A5" transform="translate(69,108)"/>
<path d="M0 0 C8.91 0 17.82 0 27 0 C27 63.36 27 126.72 27 192 C17.76 192 8.52 192 -1 192 C2 190 2 190 5.5625 188.9375 C12.76572409 186.30119987 19.09768932 180.44122756 22.5625 173.625 C24.3151663 169.20523281 25.12595017 166.09935633 25.13371277 161.37812805 C25.13797775 160.20758377 25.14224274 159.03703949 25.14663696 157.83102417 C25.14618378 156.54527496 25.14573059 155.25952576 25.14526367 153.93481445 C25.14825567 152.56805835 25.15165829 151.20130309 25.15544128 149.83454895 C25.16428415 146.11942739 25.1666196 142.40432885 25.16725707 138.68919778 C25.16796774 136.36659458 25.17010243 134.04399724 25.17275429 131.72139549 C25.18201062 123.61382043 25.18608906 115.50626181 25.18530273 107.39868164 C25.18470276 99.85010153 25.19523804 92.30159307 25.2110464 84.75303108 C25.22414353 78.26712087 25.22948568 71.781234 25.22884732 65.29531068 C25.22859285 61.42403947 25.23141546 57.55283186 25.24202538 53.68157387 C25.25174226 50.03640392 25.25176105 46.39135784 25.24450874 42.7461834 C25.24297265 40.77965568 25.25128569 38.81312789 25.25994873 36.84661865 C25.2224347 26.25158537 23.94989598 18.32138322 17 10 C12.0087032 5.16632309 6.66343529 2.75840653 0 1 C0 0.67 0 0.34 0 0 Z " fill="#5C748B" transform="translate(165,0)"/>
<path d="M0 0 C4.29505045 0.5582015 8.04600141 0.13565431 12.3125 -0.5625 C11.62363213 2.82641322 10.32533514 5.61761613 8.75 8.6875 C8.29496094 9.57953125 7.83992188 10.4715625 7.37109375 11.390625 C6.84708984 12.40382813 6.84708984 12.40382813 6.3125 13.4375 C4.85346742 13.12828116 3.39529278 12.81501201 1.9375 12.5 C1.12539062 12.32597656 0.31328125 12.15195313 -0.5234375 11.97265625 C-2.6875 11.4375 -2.6875 11.4375 -4.6875 10.4375 C-6.06092831 10.3685528 -7.43752102 10.35282292 -8.8125 10.375 C-10.730625 10.4059375 -10.730625 10.4059375 -12.6875 10.4375 C-13.3475 11.7575 -14.0075 13.0775 -14.6875 14.4375 C-13.6975 14.7675 -12.7075 15.0975 -11.6875 15.4375 C-12.0175 16.4275 -12.3475 17.4175 -12.6875 18.4375 C-14.66998715 19.15456982 -16.67165349 19.82040413 -18.6875 20.4375 C-19.3475 21.0975 -20.0075 21.7575 -20.6875 22.4375 C-22.6875 22.375 -22.6875 22.375 -24.6875 21.4375 C-27.09907484 17.7627193 -27.06288396 13.95781152 -26.50390625 9.7265625 C-22.38524075 -1.82146613 -9.98686768 -1.33970176 0 0 Z " fill="#36D7E7" transform="translate(103.6875,57.5625)"/>
<path d="M0 0 C3.875 1.75 3.875 1.75 5 4 C5.54317573 8.9509132 5.52241949 12.89488185 3.375 17.4375 C0.13415412 20.93420213 -2.70062521 22.80122637 -7.56152344 23.22143555 C-10.56715775 23.25940092 -13.55791744 23.21197973 -16.5625 23.125 C-18.60537808 23.08145276 -20.64835411 23.04223852 -22.69140625 23.0078125 C-24.04020874 22.97131592 -24.04020874 22.97131592 -25.41625977 22.93408203 C-28.05454389 23.00139156 -30.43280333 23.40741435 -33 24 C-32.5188509 18.22621075 -30.81532819 14.04140164 -28 9 C-25.28891137 9.4784274 -22.88004858 10.04742265 -20.3125 11.0625 C-15.83816119 12.32882231 -11.61828257 12.16428673 -7 12 C-7 11.01 -7 10.02 -7 9 C-7.66 8.67 -8.32 8.34 -9 8 C-9 7.34 -9 6.68 -9 6 C-7.88625 5.7525 -6.7725 5.505 -5.625 5.25 C-1.95384802 4.38994661 -1.95384802 4.38994661 -0.5625 1.875 C-0.2840625 0.946875 -0.2840625 0.946875 0 0 Z " fill="#EE9776" transform="translate(109,80)"/>
<path d="M0 0 C2.11276029 0.01120958 4.22553632 0.01974142 6.33831787 0.02572632 C11.86240738 0.04848585 17.38552975 0.10729697 22.90924072 0.1739502 C28.56045453 0.23565201 34.2118267 0.26280064 39.86328125 0.29296875 C50.92490091 0.35705359 61.98580711 0.45927528 73.046875 0.5859375 C72.716875 1.2459375 72.386875 1.9059375 72.046875 2.5859375 C64.3135926 3.95300514 56.46275129 3.70331224 48.63532829 3.66110229 C46.21704607 3.64819914 43.79881948 3.64178803 41.38050842 3.63696289 C36.2484388 3.62560383 31.11641551 3.60636138 25.984375 3.5859375 C20.02855808 3.562253 14.07276789 3.54189136 8.11691475 3.52999878 C5.74619563 3.52356499 3.37555973 3.51106052 1.00486755 3.49829102 C-0.46167938 3.49465534 -1.92822706 3.49130401 -3.39477539 3.48828125 C-4.66446671 3.48304443 -5.93415802 3.47780762 -7.24232483 3.47241211 C-14.87727013 3.7059898 -21.62543875 4.16105079 -27.2265625 9.92578125 C-27.92007812 10.78300781 -28.61359375 11.64023438 -29.328125 12.5234375 C-33.24083648 17.06509583 -36.42366975 19.3547538 -41.953125 21.5859375 C-42.613125 21.9159375 -43.273125 22.2459375 -43.953125 22.5859375 C-43.48273837 17.75569868 -42.35954923 15.20505231 -39.140625 11.5859375 C-38.11001953 10.379375 -38.11001953 10.379375 -37.05859375 9.1484375 C-25.92819718 -0.82892783 -14.09081567 -0.22085215 0 0 Z " fill="#A2B1BD" transform="translate(46.953125,-0.5859375)"/>
<path d="M0 0 C2.27252142 3.40878213 2.25424572 4.61225298 2.26742554 8.61514282 C2.27595551 9.78424194 2.28448547 10.95334106 2.29327393 12.15786743 C2.29236755 13.44204559 2.29146118 14.72622375 2.29052734 16.04931641 C2.29651142 17.4144528 2.30331668 18.77958581 2.31088257 20.14471436 C2.32856937 23.8557845 2.33323927 27.56676244 2.33451414 31.27787066 C2.33593561 33.59847885 2.34020528 35.91906361 2.34550858 38.23966599 C2.36402278 46.34192136 2.37217808 54.44411089 2.37060547 62.54638672 C2.369406 70.0870844 2.3904662 77.62749495 2.4220928 85.16812003 C2.44830113 91.64896059 2.45897075 98.12970771 2.45769465 104.61060083 C2.45718604 108.47806848 2.46281195 112.34528141 2.48405075 116.21269608 C2.50350842 119.85552615 2.50350689 123.4978607 2.48901749 127.14070892 C2.48595052 129.10348427 2.50255606 131.06626005 2.51989746 133.02896118 C2.44690554 143.34842344 0.07163525 150.580746 -7.01953125 158.140625 C-13.28010373 164.01840114 -18.3725869 166.72611387 -27 167 C-24.03635673 164.32316092 -21.21976329 162.57606336 -17.5625 161.0625 C-9.99416023 157.80635382 -6.1588961 153.58135064 -3 146 C-2.48702834 144.88289878 -2.48702834 144.88289878 -1.96369362 143.74322987 C-0.88618143 140.67600646 -0.73887245 138.29229289 -0.7215271 135.04582214 C-0.71036362 133.8525531 -0.69920013 132.65928406 -0.68769836 131.42985535 C-0.68553818 130.12937759 -0.68337799 128.82889984 -0.68115234 127.48901367 C-0.67184941 126.09912536 -0.66168019 124.70924262 -0.65071106 123.31936646 C-0.62343805 119.55326552 -0.60826969 115.78720194 -0.59528303 112.02102828 C-0.57964066 108.0825229 -0.55285397 104.14409366 -0.5272522 100.2056427 C-0.48048399 92.75077676 -0.44373041 85.29589647 -0.41057932 77.84095889 C-0.3723441 69.35244469 -0.3229376 60.86400699 -0.27259517 52.3755573 C-0.16930443 34.91709356 -0.08003475 17.45858552 0 0 Z " fill="#98A8B8" transform="translate(189,24)"/>
<path d="M0 0 C0.89117523 -0.00637985 1.78235046 -0.0127597 2.70053101 -0.01933289 C3.67027863 -0.02044571 4.64002625 -0.02155853 5.63916016 -0.02270508 C7.12459824 -0.02769768 7.12459824 -0.02769768 8.64004517 -0.03279114 C10.74000584 -0.0378652 12.83997461 -0.04019932 14.93994141 -0.04003906 C18.15752445 -0.04222228 21.37476301 -0.060364 24.59228516 -0.0793457 C26.62874231 -0.08228014 28.6652011 -0.0842646 30.70166016 -0.08520508 C31.66735931 -0.09239059 32.63305847 -0.09957611 33.62802124 -0.10697937 C34.52550079 -0.10390274 35.42298035 -0.10082611 36.34765625 -0.09765625 C37.13739838 -0.09908127 37.9271405 -0.10050629 38.74081421 -0.10197449 C40.80322266 0.14526367 40.80322266 0.14526367 43.80322266 2.14526367 C41.80322266 4.14526367 41.80322266 4.14526367 38.50268555 4.35644531 C37.09366521 4.34934897 35.68467367 4.33161123 34.27587891 4.30541992 C33.53115829 4.30021835 32.78643768 4.29501678 32.01914978 4.28965759 C29.63447755 4.27181645 27.25023122 4.24065179 24.86572266 4.20776367 C22.48482554 4.18013748 20.10399052 4.15541543 17.7230072 4.13658142 C16.24049885 4.12433789 14.75802299 4.10674738 13.27565002 4.08326721 C10.1595662 4.05307409 7.78545006 4.15118787 4.80322266 5.14526367 C1.94892086 5.24702262 -0.88105021 5.29209635 -3.7355957 5.29052734 C-4.60742996 5.29388596 -5.47926422 5.29724457 -6.3775177 5.30070496 C-9.26389993 5.3102158 -12.15022416 5.31215808 -15.03662109 5.31323242 C-17.04057337 5.3164447 -19.0445254 5.31980875 -21.04847717 5.32331848 C-25.25082951 5.32930994 -29.45316127 5.33115834 -33.65551758 5.33056641 C-39.04375259 5.33046474 -44.43185598 5.34412196 -49.82005978 5.36133862 C-53.95928047 5.3724493 -58.09846924 5.37448591 -62.23770332 5.37395668 C-64.22444678 5.37513801 -66.21119104 5.37956832 -68.19791985 5.38728905 C-70.97489561 5.39707091 -73.75158421 5.39421811 -76.52856445 5.38818359 C-77.35103668 5.3938031 -78.17350891 5.39942261 -79.02090454 5.4052124 C-82.87828218 5.38387942 -85.93272732 5.34963393 -89.19677734 3.14526367 C-88.19677734 2.14526367 -88.19677734 2.14526367 -85.32775879 2.03173828 C-84.04252319 2.0369751 -82.7572876 2.04221191 -81.43310547 2.04760742 C-80.72565186 2.04906769 -80.01819824 2.05052795 -79.28930664 2.05203247 C-77.74674284 2.05584863 -76.20418348 2.06197577 -74.66163635 2.07009888 C-72.21431607 2.08283503 -69.7670499 2.08937233 -67.31970215 2.09423828 C-61.23312615 2.10763228 -55.14660063 2.13168798 -49.06005859 2.15563965 C-43.93110944 2.17545084 -38.8021802 2.19106688 -33.67320251 2.20120239 C-31.27318776 2.20764249 -28.87325486 2.22015761 -26.4732666 2.23291016 C-19.32691668 2.25727829 -12.27367983 2.2753553 -5.19677734 1.14526367 C-3.64350663 -0.40800704 -2.16052906 0.01044914 0 0 Z " fill="#8A9CAE" transform="translate(124.19677734375,-0.145263671875)"/>
<path d="M0 0 C0.33 0 0.66 0 1 0 C1 9.57 1 19.14 1 29 C-8.24 29 -17.48 29 -27 29 C-24 27 -24 27 -20.4375 25.9375 C-13.35348677 23.34482972 -6.98790187 17.55146888 -3.5 10.875 C-1.9957474 7.3414255 -0.93057874 3.72231498 0 0 Z " fill="#455B71" transform="translate(191,163)"/>
<path d="M0 0 C12.66970387 2.89066059 12.66970387 2.89066059 18 6 C16.39211076 9.49952364 15.17486734 10.89713686 11.8125 12.875 C4.09206202 15.15316203 -3.02603551 12.60253526 -10 9 C-10.33 8.34 -10.66 7.68 -11 7 C-7.64509957 4.02851677 -5.3925532 2.7320922 -1 2 C-0.67 1.34 -0.34 0.68 0 0 Z " fill="#64729B" transform="translate(92,73)"/>
<path d="M0 0 C2 3 2 3 3.125 6.625 C5.52433555 13.07469903 9.84322248 18.20360174 15.828125 21.609375 C18.52444977 22.83497717 21.23831236 23.93220462 24 25 C25.32 25.66 26.64 26.32 28 27 C18.76 27 9.52 27 0 27 C0 18.09 0 9.18 0 0 Z " fill="#587189" transform="translate(0,165)"/>
<path d="M0 0 C2.04514127 3.06771191 2.24827274 3.65568048 2.22705078 7.10424805 C2.22689972 7.92487228 2.22674866 8.74549652 2.22659302 9.59098816 C2.21627045 10.47232925 2.20594788 11.35367035 2.1953125 12.26171875 C2.1924826 13.16751175 2.18965271 14.07330475 2.18673706 15.00654602 C2.17553964 17.90033158 2.15043589 20.79380794 2.125 23.6875 C2.11496963 25.64908407 2.10584388 27.610673 2.09765625 29.57226562 C2.07560173 34.3816296 2.04107489 39.19076237 2 44 C1.67 44 1.34 44 1 44 C0.97494385 43.30438965 0.9498877 42.6087793 0.92407227 41.89208984 C0.80754026 38.71956545 0.68507432 35.54729645 0.5625 32.375 C0.52318359 31.28058594 0.48386719 30.18617187 0.44335938 29.05859375 C0.40146484 27.99511719 0.35957031 26.93164062 0.31640625 25.8359375 C0.27974854 24.86188965 0.24309082 23.8878418 0.20532227 22.88427734 C-0.00893288 19.8745148 -0.45931357 16.96704084 -1 14 C-1.4846875 14.68964844 -1.969375 15.37929687 -2.46875 16.08984375 C-9.05808223 25.32758067 -15.54433485 33.58724837 -25 40 C-25.66 39.67 -26.32 39.34 -27 39 C-26.61328125 38.5875 -26.2265625 38.175 -25.828125 37.75 C-23.0304326 34.64760843 -20.79323094 31.84745154 -19.125 28 C-17.20060652 23.81969989 -14.41527172 21.47044959 -10.89453125 18.58984375 C-4.9222438 13.57804789 -1.89411615 7.43076336 0 0 Z " fill="#C0627D" transform="translate(148,69)"/>
<path d="M0 0 C8.25 0 16.5 0 25 0 C22 2 22 2 20.01953125 2.97265625 C10.64311855 7.60277863 5.06024774 14.31214325 1.59375 24.12890625 C1.3978125 24.74636719 1.201875 25.36382813 1 26 C0.67 26 0.34 26 0 26 C0 17.42 0 8.84 0 0 Z " fill="#6B859F" transform="translate(0,0)"/>
<path d="M0 0 C0.67702469 -0.00189835 1.35404938 -0.00379669 2.05158997 -0.00575256 C4.28695312 -0.00945253 6.52198996 0.00123962 8.75732422 0.01245117 C10.31948814 0.01364443 11.88165278 0.01409583 13.44381714 0.01383972 C16.72056565 0.01540369 19.9972048 0.02368151 23.27392578 0.03710938 C27.44971252 0.05401457 31.6253782 0.05792592 35.80119514 0.05716419 C39.03049857 0.05743792 42.25977614 0.06295283 45.48907089 0.07016563 C47.02706583 0.07332347 48.56506367 0.07531287 50.10306168 0.07605934 C58.17760034 0.08426255 66.16923107 0.18433003 74.18701172 1.24291992 C74.18701172 1.57291992 74.18701172 1.90291992 74.18701172 2.24291992 C65.26292687 3.05194622 56.42679475 3.39106558 47.46826172 3.37573242 C46.20792114 3.37668915 44.94758057 3.37764587 43.64904785 3.37863159 C40.33333543 3.37947856 37.01767137 3.37550875 33.70196533 3.36987305 C31.68833917 3.36792121 29.67475659 3.36986846 27.66113281 3.37329102 C23.74265579 3.37951919 19.82424155 3.37870694 15.90576172 3.37573242 C14.72308716 3.37775665 13.5404126 3.37978088 12.32189941 3.38186646 C4.56859259 3.3603958 -3.09164281 2.94291008 -10.81298828 2.24291992 C-7.20452633 -0.01454613 -4.20279737 -0.00489998 0 0 Z " fill="#9AA6B3" transform="translate(56.81298828125,188.757080078125)"/>
<path d="M0 0 C0.7321875 0.66128906 1.464375 1.32257812 2.21875 2.00390625 C2.9509375 2.64199219 3.683125 3.28007812 4.4375 3.9375 C11.57112081 12.15826508 12.41759584 19.08215646 12.19458008 29.80688477 C12.18328848 31.22689781 12.17423578 32.64693014 12.16723633 34.06697083 C12.14208086 37.89738507 12.08585361 41.72677089 12.0237906 45.556741 C11.96415164 49.56841472 11.93343984 53.58031069 11.89958191 57.5922699 C11.83120457 65.17839001 11.73703596 72.76395898 11.63346261 80.3496713 C11.51675057 88.99039398 11.42900005 97.63133612 11.34361041 106.27241623 C11.16741362 124.03751286 10.95507956 141.80201289 10.71875 159.56640625 C10.05875 159.89640625 9.39875 160.22640625 8.71875 160.56640625 C8.72013269 159.52252385 8.72013269 159.52252385 8.72154331 158.45755291 C8.74367237 141.48790226 8.76019748 124.51825621 8.77056217 107.54859447 C8.77570827 99.34204272 8.78271871 91.13550063 8.79418945 82.92895508 C8.80418794 75.77226817 8.81061568 68.61558825 8.81283849 61.45889455 C8.81413686 57.67301365 8.81716698 53.88715276 8.82448006 50.10127831 C8.83132193 46.530041 8.83335052 42.95883174 8.83185768 39.3875885 C8.83225933 37.4681309 8.83761162 35.54867628 8.84317017 33.62922668 C9.32391285 18.32628731 9.32391285 18.32628731 2.61328125 5.3125 C-1.63490603 1.39716038 -6.74086947 1.23125191 -12.28125 0.56640625 C-12.28125 0.23640625 -12.28125 -0.09359375 -12.28125 -0.43359375 C-3.78150689 -2.37639217 -3.78150689 -2.37639217 0 0 Z " fill="#768CA1" transform="translate(178.28125,5.43359375)"/>
<path d="M0 0 C2 1 2 1 3 3 C3.75912409 9.83211679 3.75912409 9.83211679 1.375 13.5 C-1.76313998 15.48198314 -3.34873465 15.67064058 -7 15 C-10.36344489 12.51397551 -11.80057749 11.08574477 -12.5625 6.9375 C-12 4 -12 4 -10.5 1.625 C-6.75900771 -0.80664499 -4.42573582 -0.49174842 0 0 Z " fill="#F4F7F8" transform="translate(111,150)"/>
<path d="M0 0 C21.78 0 43.56 0 66 0 C66 0.33 66 0.66 66 1 C54.12 1.33 42.24 1.66 30 2 C34.455 3.98 34.455 3.98 39 6 C47.77414709 10.79212195 56.41684305 16.8336861 61 26 C57.71485977 24.87073305 54.95743652 23.38365351 52.0625 21.5 C48.81531842 19.41120578 45.74753532 18.03057221 42 17 C42 16.67 42 16.34 42 16 C44.31 16.33 46.62 16.66 49 17 C38.4007572 5.77727233 23.57785466 1.9643624 8.5 1.375 C7.67757812 1.33632813 6.85515625 1.29765625 6.0078125 1.2578125 C4.0055299 1.16468308 2.00279738 1.08131015 0 1 C0 0.67 0 0.34 0 0 Z " fill="#5A9BC1" transform="translate(63,28)"/>
<path d="M0 0 C0.66 0 1.32 0 2 0 C2 0.66 2 1.32 2 2 C2.66 2.2475 3.32 2.495 4 2.75 C7.13242603 4.05517751 10.11839936 5.54353274 13.1328125 7.09765625 C17.25069516 9.08767904 21.20444273 9.30716247 25.6875 9.5625 C26.38939453 9.60568359 27.09128906 9.64886719 27.81445312 9.69335938 C29.54275206 9.7991736 31.2713511 9.90006581 33 10 C29.01647791 12.30903272 26.49885947 11.86516528 22 11 C21.94250443 13.91630113 21.94250443 13.91630113 23 17 C25.43964285 18.344293 27.39366357 19.16755795 30 20 C31.48111377 20.55735292 32.9603351 21.11976402 34.4375 21.6875 C35.613125 22.120625 36.78875 22.55375 38 23 C38 23.33 38 23.66 38 24 C31.54487966 24.56131481 26.84560277 22.63463787 21 20 C21 19.34 21 18.68 21 18 C20.14341797 17.84917969 20.14341797 17.84917969 19.26953125 17.6953125 C12.37124216 15.58189519 5.55133483 8.4724383 1 3 C0.67 2.01 0.34 1.02 0 0 Z " fill="#D3835D" transform="translate(69,108)"/>
<path d="M0 0 C0.99 0.33 1.98 0.66 3 1 C3.31774533 5.6073073 3.42909733 8.1253016 1.375 12.3125 C-2.01400416 16.14742576 -4.63828292 17.85341066 -9.83203125 18.17578125 C-12.56225819 18.1862956 -15.27320298 18.1310027 -18 18 C-17.43152344 17.79117188 -16.86304687 17.58234375 -16.27734375 17.3671875 C-13.15886898 15.49503283 -11.65216128 13.08746607 -9.5625 10.125 C-6.72482219 6.10783524 -4.16554608 2.69575177 0 0 Z " fill="#F49C70" transform="translate(111,85)"/>
<path d="M0 0 C0.66 0.33 1.32 0.66 2 1 C1.60167969 1.43570313 1.20335938 1.87140625 0.79296875 2.3203125 C-1.71945511 5.14449699 -3.78895023 7.53952779 -5.375 11 C-7.32518682 14.60034489 -9.6998249 16.55985992 -12.8671875 19.09375 C-18.21030204 23.86928095 -20.81181501 28.10546914 -22.8125 34.875 C-23.02841797 35.56335938 -23.24433594 36.25171875 -23.46679688 36.9609375 C-23.99048319 38.63673371 -24.49706954 40.31785813 -25 42 C-25.33 42 -25.66 42 -26 42 C-26.90519863 30.00611817 -21.46715931 21.01112082 -14 12 C-9.80098313 7.24470312 -5.25395154 3.53837553 0 0 Z " fill="#5088C8" transform="translate(68,53)"/>
<path d="M0 0 C2.12579274 3.18868911 2.24873041 3.91023405 2.23046875 7.5546875 C2.22934082 8.5355835 2.22821289 9.51647949 2.22705078 10.52709961 C2.21399902 11.63190674 2.20094727 12.73671387 2.1875 13.875 C2.17960449 15.05521729 2.17170898 16.23543457 2.16357422 17.45141602 C2.13199382 21.07893663 2.08729492 24.70590864 2.03643799 28.33319092 C1.99616261 31.28084951 1.96066495 34.22854814 1.92529297 37.17626953 C1.85441301 42.92688593 1.77070317 48.67722107 1.67959595 54.42755127 C1.64366503 56.73753335 1.61005336 59.04755287 1.57894897 61.35760498 C1.37463386 76.0027104 0.6447932 90.44329025 -1 105 C-1.33 105 -1.66 105 -2 105 C-2.95043457 93.64570132 -3.11033706 82.38923617 -3 71 C-2.34 71.33 -1.68 71.66 -1 72 C-1.00222061 71.17172195 -1.00444122 70.34344391 -1.00672913 69.49006653 C-1.02678138 61.67735313 -1.04199932 53.8646484 -1.05181217 46.05191517 C-1.05702667 42.03549411 -1.06409828 38.01909435 -1.07543945 34.00268555 C-1.08631928 30.12531513 -1.09228764 26.24796518 -1.09487724 22.37058067 C-1.09672231 20.89264288 -1.10032524 19.41470618 -1.10573006 17.93677711 C-1.11300812 15.86383281 -1.11398809 13.79097264 -1.11352539 11.71801758 C-1.115746 10.53887283 -1.11796661 9.35972809 -1.12025452 8.14485168 C-1.01163474 5.30426739 -0.65397276 2.7598529 0 0 Z " fill="#90A2B2" transform="translate(3,33)"/>
<path d="M0 0 C2.71730403 0.47952424 5.20761822 1.07381981 7.8125 2 C11.57695471 3.1810054 15.07927226 3.59440748 19 4 C19 4.33 19 4.66 19 5 C17.783125 5.0825 16.56625 5.165 15.3125 5.25 C11.18503799 5.73945125 9.09073762 7.18197452 6 10 C5.34 10 4.68 10 4 10 C4 10.66 4 11.32 4 12 C4.66 12.33 5.32 12.66 6 13 C2.37 13.66 -1.26 14.32 -5 15 C-4.5188509 9.22621075 -2.81532819 5.04140164 0 0 Z " fill="#D88795" transform="translate(81,89)"/>
<path d="M0 0 C1.588125 -0.061875 3.17625 -0.12375 4.8125 -0.1875 C6.15248047 -0.23970703 6.15248047 -0.23970703 7.51953125 -0.29296875 C10 0 10 0 11.84375 1.34375 C13 3 13 3 12.6875 5.6875 C12.460625 6.450625 12.23375 7.21375 12 8 C11.34 8 10.68 8 10 8 C10.33 8.598125 10.66 9.19625 11 9.8125 C12 12 12 12 12 15 C8.53004599 13.84334866 8.11443335 12.81924446 6 10 C5.01 9.67 4.02 9.34 3 9 C3 10.98 3 12.96 3 15 C2.01 14.67 1.02 14.34 0 14 C0 9.38 0 4.76 0 0 Z " fill="#EFF2F4" transform="translate(117,150)"/>
<path d="M0 0 C16.83 0 33.66 0 51 0 C50.67 0.66 50.34 1.32 50 2 C43.70477169 2.98709741 37.51280937 3.13626068 31.15234375 3.09765625 C30.25504044 3.0962413 29.35773712 3.09482635 28.4332428 3.09336853 C25.60129286 3.0878251 22.76942555 3.07528358 19.9375 3.0625 C18.00325636 3.05747767 16.06901147 3.05291606 14.13476562 3.04882812 C9.42314583 3.03787429 4.71158687 3.02064953 0 3 C0 2.01 0 1.02 0 0 Z " fill="#C0CBD4" transform="translate(69,0)"/>
<path d="M0 0 C9.19765204 -0.02327317 18.39529378 -0.0409909 27.59296894 -0.05181217 C31.86480571 -0.05700845 36.13662218 -0.06404628 40.40844727 -0.07543945 C44.53871546 -0.08638489 48.66896425 -0.09230129 52.79924583 -0.09487724 C54.3671213 -0.09671064 55.93499583 -0.10029034 57.50286293 -0.10573006 C66.05027621 -0.13417881 74.49749904 -0.00879311 83 1 C83 1.66 83 2.32 83 3 C76.26815587 3.87686585 69.7214632 4.12387197 62.9375 4.0625 C61.97650391 4.05798828 61.01550781 4.05347656 60.02539062 4.04882812 C57.68352578 4.03717706 55.34179819 4.02082025 53 4 C53.99 3.34 54.98 2.68 56 2 C37.52 1.67 19.04 1.34 0 1 C0 0.67 0 0.34 0 0 Z " fill="#6E8398" transform="translate(65,188)"/>
<path d="M0 0 C1.60875 -0.04125 3.2175 -0.0825 4.875 -0.125 C5.77992187 -0.14820313 6.68484375 -0.17140625 7.6171875 -0.1953125 C10 0 10 0 12 2 C12.3125 5 12.3125 5 12 8 C8.5647952 10.29013653 7.014669 10.17842973 3 10 C3 11.65 3 13.3 3 15 C2.01 14.67 1.02 14.34 0 14 C0 9.38 0 4.76 0 0 Z " fill="#D7DDE3" transform="translate(85,150)"/>
<path d="M0 0 C0.89117523 -0.00637985 1.78235046 -0.0127597 2.70053101 -0.01933289 C3.67027863 -0.02044571 4.64002625 -0.02155853 5.63916016 -0.02270508 C7.12459824 -0.02769768 7.12459824 -0.02769768 8.64004517 -0.03279114 C10.74000584 -0.0378652 12.83997461 -0.04019932 14.93994141 -0.04003906 C18.15752445 -0.04222228 21.37476301 -0.060364 24.59228516 -0.0793457 C26.62874231 -0.08228014 28.6652011 -0.0842646 30.70166016 -0.08520508 C31.66735931 -0.09239059 32.63305847 -0.09957611 33.62802124 -0.10697937 C34.52550079 -0.10390274 35.42298035 -0.10082611 36.34765625 -0.09765625 C37.13739838 -0.09908127 37.9271405 -0.10050629 38.74081421 -0.10197449 C40.80322266 0.14526367 40.80322266 0.14526367 43.80322266 2.14526367 C43.14322266 2.80526367 42.48322266 3.46526367 41.80322266 4.14526367 C39.93563972 3.94381323 38.06857445 3.72832233 36.21166992 3.44485474 C31.66659367 2.87948457 27.09539526 3.02420514 22.52197266 3.04760742 C20.94083679 3.04972984 20.94083679 3.04972984 19.32775879 3.05189514 C15.98621695 3.05745859 12.64474399 3.07000426 9.30322266 3.08276367 C7.02718196 3.0877834 4.75114021 3.09234548 2.47509766 3.09643555 C-3.08221721 3.10741603 -8.63949235 3.12411745 -14.19677734 3.14526367 C-14.19677734 2.81526367 -14.19677734 2.48526367 -14.19677734 2.14526367 C-13.23964844 2.05438477 -13.23964844 2.05438477 -12.26318359 1.96166992 C-11.02375 1.83598633 -11.02375 1.83598633 -9.75927734 1.70776367 C-8.93556641 1.62655273 -8.11185547 1.5453418 -7.26318359 1.46166992 C-4.40907251 1.02465102 -3.16971597 0.01532995 0 0 Z " fill="#8EA1B2" transform="translate(124.19677734375,-0.145263671875)"/>
<path d="M0 0 C0.33 0 0.66 0 1 0 C2.62966432 19.26496036 2.62966432 38.73503964 1 58 C0.67 58 0.34 58 0 58 C-0.83029684 46.37868126 -1.15908531 34.81503509 -1.13037109 23.16479492 C-1.12489743 20.5128028 -1.13041546 17.86097214 -1.13671875 15.20898438 C-1.13605972 13.51562463 -1.13478221 11.82226498 -1.1328125 10.12890625 C-1.13483673 9.33948135 -1.13686096 8.55005646 -1.13894653 7.73670959 C-1.11503066 2.23006133 -1.11503066 2.23006133 0 0 Z " fill="#C0CCD5" transform="translate(1,63)"/>
<path d="M0 0 C1.828125 0.1640625 1.828125 0.1640625 4 1 C5.484375 3.3984375 5.484375 3.3984375 6.75 6.375 C7.39195313 7.84066406 7.39195313 7.84066406 8.046875 9.3359375 C9 12 9 12 9 15 C8.01 14.67 7.02 14.34 6 14 C6 13.34 6 12.68 6 12 C4.0509375 12.185625 4.0509375 12.185625 2.0625 12.375 C1.33160156 12.44460937 0.60070312 12.51421875 -0.15234375 12.5859375 C-0.76207031 12.72257813 -1.37179688 12.85921875 -2 13 C-2.33 13.66 -2.66 14.32 -3 15 C-3.99 15 -4.98 15 -6 15 C-5.39644592 11.14974121 -4.23227397 8.13898841 -2.4375 4.6875 C-1.98246094 3.80449219 -1.52742188 2.92148438 -1.05859375 2.01171875 C-0.53458984 1.01591797 -0.53458984 1.01591797 0 0 Z " fill="#C8D0D7" transform="translate(74,150)"/>
<path d="M0 0 C1.828125 0.1640625 1.828125 0.1640625 4 1 C5.484375 3.3984375 5.484375 3.3984375 6.75 6.375 C7.39195312 7.84066406 7.39195312 7.84066406 8.046875 9.3359375 C9 12 9 12 9 15 C8.505 14.690625 8.01 14.38125 7.5 14.0625 C4.02013219 12.58355618 0.75971491 12.37597149 -3 12 C-3.33 12.99 -3.66 13.98 -4 15 C-4.66 15 -5.32 15 -6 15 C-5.39644592 11.14974121 -4.23227397 8.13898841 -2.4375 4.6875 C-1.98246094 3.80449219 -1.52742187 2.92148438 -1.05859375 2.01171875 C-0.53458984 1.01591797 -0.53458984 1.01591797 0 0 Z " fill="#D1D7DD" transform="translate(144,150)"/>
<path d="M0 0 C0.33 0 0.66 0 1 0 C1.33 2.64 1.66 5.28 2 8 C2.33 8 2.66 8 3 8 C3.19996081 12.24950721 3.3826241 16.49959901 3.5625 20.75 C3.61857422 21.93722656 3.67464844 23.12445313 3.73242188 24.34765625 C4.04565601 31.99056911 3.83820579 39.39583905 3 47 C0.76654837 44.76654837 0.07382811 43.20038837 -0.12025452 40.04475403 C-0.11803391 39.30529037 -0.11581329 38.56582672 -0.11352539 37.80395508 C-0.11344986 36.96331009 -0.11337433 36.1226651 -0.11329651 35.25654602 C-0.10813522 34.35333115 -0.10297394 33.45011627 -0.09765625 32.51953125 C-0.0962413 31.59154221 -0.09482635 30.66355316 -0.09336853 29.70744324 C-0.08776937 26.74242942 -0.07521704 23.77749101 -0.0625 20.8125 C-0.05748489 18.80273547 -0.052922 16.79296975 -0.04882812 14.78320312 C-0.03780021 9.85543968 -0.02053617 4.92773263 0 0 Z " fill="#869BAE" transform="translate(0,123)"/>
<path d="M0 0 C-0.68886787 3.38891322 -1.98716486 6.18011613 -3.5625 9.25 C-4.01753906 10.14203125 -4.47257812 11.0340625 -4.94140625 11.953125 C-5.29074219 12.62859375 -5.64007813 13.3040625 -6 14 C-7.46015291 13.71758359 -8.91809793 13.42373386 -10.375 13.125 C-11.18710938 12.96257812 -11.99921875 12.80015625 -12.8359375 12.6328125 C-15 12 -15 12 -17 10 C-16.2575 9.608125 -15.515 9.21625 -14.75 8.8125 C-11.78773579 6.86009859 -10.14878631 4.7934222 -8 2 C-4.77208445 -0.1519437 -3.71599191 -0.20086443 0 0 Z " fill="#5CA7E7" transform="translate(116,57)"/>
<path d="M0 0 C0.99 0 1.98 0 3 0 C4.60546875 1.75 4.60546875 1.75 6.1875 4 C6.71730469 4.7425 7.24710938 5.485 7.79296875 6.25 C8.19128906 6.8275 8.58960938 7.405 9 8 C9.33 5.36 9.66 2.72 10 0 C10.99 0 11.98 0 13 0 C13 4.62 13 9.24 13 14 C11.68 14 10.36 14 9 14 C7.296875 12.25 7.296875 12.25 5.75 10 C5.22921875 9.2575 4.7084375 8.515 4.171875 7.75 C3.78515625 7.1725 3.3984375 6.595 3 6 C2.67 8.97 2.34 11.94 2 15 C1.34 15 0.68 15 0 15 C0 10.05 0 5.1 0 0 Z " fill="#F1F3F5" transform="translate(53,150)"/>
<path d="M0 0 C4.65562977 0.03367544 8.18456498 1.42731356 12.4375 3.25 C11.4475 5.23 10.4575 7.21 9.4375 9.25 C7.68621182 8.96617054 5.93649997 8.67260471 4.1875 8.375 C2.72570312 8.13136719 2.72570312 8.13136719 1.234375 7.8828125 C-1.33514117 7.30144152 -3.28321056 6.54159735 -5.5625 5.25 C-4.44749137 0.31210466 -4.44749137 0.31210466 0 0 Z " fill="#66788D" transform="translate(94.5625,66.75)"/>
<path d="M0 0 C2.01822917 0.06510417 4.03645833 0.13020833 6.0546875 0.1953125 C6.3846875 1.1853125 6.7146875 2.1753125 7.0546875 3.1953125 C4.7446875 3.1953125 2.4346875 3.1953125 0.0546875 3.1953125 C-0.2753125 3.8553125 -0.6053125 4.5153125 -0.9453125 5.1953125 C0.1684375 5.4840625 1.2821875 5.7728125 2.4296875 6.0703125 C6.0546875 7.1953125 6.0546875 7.1953125 8.0546875 9.1953125 C7.68787092 12.12984511 7.19031504 13.05968496 5.0546875 15.1953125 C1.4296875 15.3203125 1.4296875 15.3203125 -1.9453125 15.1953125 C-2.6053125 13.8753125 -3.2653125 12.5553125 -3.9453125 11.1953125 C-0.9753125 11.5253125 1.9946875 11.8553125 5.0546875 12.1953125 C2.39941465 9.09282605 2.39941465 9.09282605 -0.5703125 8.3203125 C-2.9453125 7.1953125 -2.9453125 7.1953125 -3.8828125 4.6953125 C-3.9034375 3.8703125 -3.9240625 3.0453125 -3.9453125 2.1953125 C-1.9453125 0.1953125 -1.9453125 0.1953125 0 0 Z " fill="#EFF1F3" transform="translate(41.9453125,149.8046875)"/>
<path d="M0 0 C5.94 1.485 5.94 1.485 12 3 C12 3.66 12 4.32 12 5 C6.44869995 6.77641602 1.23634898 6.53883587 -4 4 C-3.89386164 6.45224694 -3.89386164 6.45224694 -3 9 C-0.52363988 10.37466625 -0.52363988 10.37466625 2 11 C2 11.66 2 12.32 2 13 C-2.93133998 11.91343356 -6.78316189 10.8990762 -11 8 C-7.74440873 4.37234116 -5.83571296 2.6716268 -1 2 C-0.67 1.34 -0.34 0.68 0 0 Z " fill="#669AE4" transform="translate(92,73)"/>
<path d="M0 0 C0.33 0.66 0.66 1.32 1 2 C-4.55844865 9.62893096 -10.51002245 15.29990679 -18 21 C-18.66 20.67 -19.32 20.34 -20 20 C-19.59007813 19.54109375 -19.18015625 19.0821875 -18.7578125 18.609375 C-18.21898438 17.99578125 -17.68015625 17.3821875 -17.125 16.75 C-16.59132813 16.14671875 -16.05765625 15.5434375 -15.5078125 14.921875 C-13.93626842 13.06147852 -13.93626842 13.06147852 -12.9921875 10.8984375 C-11.4410314 7.9304774 -8.78716881 6.74198051 -6 5 C-5.34 4.34 -4.68 3.68 -4 3 C-3.01 3 -2.02 3 -1 3 C-0.67 2.01 -0.34 1.02 0 0 Z " fill="#BA616D" transform="translate(141,88)"/>
<path d="M0 0 C0.66 0.66 1.32 1.32 2 2 C1.67 2.99 1.34 3.98 1 5 C1.99 5.33 2.98 5.66 4 6 C3.67 6.99 3.34 7.98 3 9 C1.01751285 9.71706982 -0.98415349 10.38290413 -3 11 C-3.66 11.66 -4.32 12.32 -5 13 C-7.125 12.625 -7.125 12.625 -9 12 C-9.33 10.68 -9.66 9.36 -10 8 C-8.9171875 7.4121875 -8.9171875 7.4121875 -7.8125 6.8125 C-4.772674 4.85350102 -2.47872273 2.62036403 0 0 Z " fill="#45BFE9" transform="translate(88,67)"/>
<path d="M0 0 C1.43836751 0.11458693 2.87570966 0.24209116 4.3125 0.375 C5.51326172 0.47941406 5.51326172 0.47941406 6.73828125 0.5859375 C9 1 9 1 12 3 C11.67 4.32 11.34 5.64 11 7 C9.39667209 7.08121924 7.79215974 7.13929134 6.1875 7.1875 C5.29417969 7.22230469 4.40085937 7.25710937 3.48046875 7.29296875 C0.58352485 6.95081002 -0.22555028 6.24606427 -2 4 C-1.34 2.68 -0.68 1.36 0 0 Z " fill="#56687F" transform="translate(91,86)"/>
<path d="M0 0 C0.33 0.66 0.66 1.32 1 2 C-2.95126536 8.87176584 -8.7855328 15.01704057 -16.25 18 C-19.40648516 18.84172938 -21.77333827 19.30249954 -25 19 C-22.06537882 16.34937442 -19.32374847 14.64074117 -15.6875 13.1875 C-9.06705389 10.39121809 -4.15117608 5.80655304 0 0 Z " fill="#8D9EB0" transform="translate(187,172)"/>
<path d="M0 0 C2.375 0.75 2.375 0.75 3.375 1.75 C3.5625 4.6875 3.5625 4.6875 3.375 7.75 C1.375 9.75 1.375 9.75 -1.125 10 C-3.625 9.75 -3.625 9.75 -5.625 7.75 C-5.99296448 4.87987704 -6.00009409 3.34225382 -4.4375 0.875 C-2.625 -0.25 -2.625 -0.25 0 0 Z " fill="#51687F" transform="translate(107.625,152.25)"/>
<path d="M0 0 C0.88767121 2.45219172 1.12206833 3.6503251 0.25 6.1484375 C-4.52134188 14.64739023 -9.56952887 18.88486426 -18.765625 22.140625 C-21.22889092 22.99439959 -21.22889092 22.99439959 -24 25 C-24.99 24.67 -25.98 24.34 -27 24 C-14.54150198 16 -14.54150198 16 -10 16 C-10 15.34 -10 14.68 -10 14 C-9.01 14 -8.02 14 -7 14 C-5.79371992 11.66785852 -4.8345262 9.50357861 -4 7 C-3.34 7 -2.68 7 -2 7 C-1.34 4.69 -0.68 2.38 0 0 Z " fill="#6F859C" transform="translate(186,166)"/>
<path d="M0 0 C1.39120471 0.00015906 2.78241534 0.00585033 4.17358398 0.01586914 C4.90463852 0.01728409 5.63569305 0.01869904 6.38890076 0.02015686 C8.73253406 0.02577131 11.07607313 0.03832617 13.41967773 0.05102539 C15.00496282 0.05603853 16.59024939 0.06060176 18.17553711 0.06469727 C22.06945383 0.07574542 25.96329979 0.09301967 29.85717773 0.11352539 C29.85717773 0.44352539 29.85717773 0.77352539 29.85717773 1.11352539 C1.81237122 4.60354576 1.81237122 4.60354576 -4.14282227 1.11352539 C-3.14282227 0.11352539 -3.14282227 0.11352539 0 0 Z " fill="#96A6B5" transform="translate(39.142822265625,1.886474609375)"/>
<path d="M0 0 C0.66 0 1.32 0 2 0 C2 0.66 2 1.32 2 2 C2.66 2.2475 3.32 2.495 4 2.75 C7.76360907 4.31817045 11.3711424 6.14505046 15 8 C14.67 9.32 14.34 10.64 14 12 C14.66 12 15.32 12 16 12 C16.66 13.65 17.32 15.3 18 17 C11.11486295 13.70710837 5.99490594 8.73170241 1 3 C0.67 2.01 0.34 1.02 0 0 Z " fill="#B0607F" transform="translate(69,108)"/>
<path d="M0 0 C2.21484375 0.28125 2.21484375 0.28125 5.90234375 1.09375 C4.23567708 2.76041667 2.56901042 4.42708333 0.90234375 6.09375 C0.44859375 6.6403125 -0.00515625 7.186875 -0.47265625 7.75 C-2.65483226 9.5544917 -3.99568055 9.40253155 -6.78515625 9.28125 C-7.99751953 9.24064453 -7.99751953 9.24064453 -9.234375 9.19921875 C-9.84925781 9.16441406 -10.46414062 9.12960938 -11.09765625 9.09375 C-9.76432292 7.76041667 -8.43098958 6.42708333 -7.09765625 5.09375 C-6.35515625 4.165625 -5.61265625 3.2375 -4.84765625 2.28125 C-2.09765625 0.09375 -2.09765625 0.09375 0 0 Z " fill="#4BBAEA" transform="translate(104.09765625,57.90625)"/>
<path d="M0 0 C1.9375 0.75 1.9375 0.75 4 2 C4.75 4.125 4.75 4.125 5 6 C4.41734375 6.11214844 3.8346875 6.22429687 3.234375 6.33984375 C0.79689343 7.06000876 -0.7250586 8.04379395 -2.75 9.5625 C-3.36359375 10.01753906 -3.9771875 10.47257812 -4.609375 10.94140625 C-5.06828125 11.29074219 -5.5271875 11.64007813 -6 12 C-6.33 11.01 -6.66 10.02 -7 9 C-7.66 8.67 -8.32 8.34 -9 8 C-9 7.34 -9 6.68 -9 6 C-7.88625 5.7525 -6.7725 5.505 -5.625 5.25 C-1.95384802 4.38994661 -1.95384802 4.38994661 -0.5625 1.875 C-0.376875 1.25625 -0.19125 0.6375 0 0 Z " fill="#E2848D" transform="translate(109,80)"/>
<path d="M0 0 C3.3 0 6.6 0 10 0 C9.01 1.485 9.01 1.485 8 3 C6.35 2.67 4.7 2.34 3 2 C3 3.98 3 5.96 3 8 C4.65 8 6.3 8 8 8 C8 8.33 8 8.66 8 9 C6.35 9 4.7 9 3 9 C3 10.98 3 12.96 3 15 C2.01 14.67 1.02 14.34 0 14 C0 9.38 0 4.76 0 0 Z " fill="#EBEEF1" transform="translate(85,150)"/>
<path d="M0 0 C-0.75 6.75 -0.75 6.75 -3 9 C-4.65204456 9.70211894 -6.31923769 10.36971413 -8 11 C-8.99 11.495 -8.99 11.495 -10 12 C-9.53702457 5.51834396 -7.10579377 0 0 0 Z " fill="#B0BDC7" transform="translate(13,10)"/>
<path d="M0 0 C0.91644287 0.00523682 1.83288574 0.01047363 2.77709961 0.01586914 C3.76645508 0.0190918 4.75581055 0.02231445 5.77514648 0.02563477 C6.81606445 0.03401367 7.85698242 0.04239258 8.92944336 0.05102539 C10.49662109 0.05779297 10.49662109 0.05779297 12.09545898 0.06469727 C14.68600996 0.07652627 17.27644895 0.0930085 19.86694336 0.11352539 C19.53694336 0.77352539 19.20694336 1.43352539 18.86694336 2.11352539 C8.89590895 4.12289734 -1.99921299 3.20892768 -12.13305664 3.11352539 C-12.13305664 2.78352539 -12.13305664 2.45352539 -12.13305664 2.11352539 C-11.17592773 2.02264648 -11.17592773 2.02264648 -10.19946289 1.92993164 C-8.9600293 1.80424805 -8.9600293 1.80424805 -7.69555664 1.67602539 C-6.8718457 1.59481445 -6.04813477 1.51360352 -5.19946289 1.42993164 C-2.76494417 1.05716034 -2.48266432 0.13213219 0 0 Z " fill="#9DADBC" transform="translate(122.133056640625,-0.113525390625)"/>
<path d="M0 0 C0.99 0.33 1.98 0.66 3 1 C3.02920143 5.18748519 3.04686646 9.37494391 3.0625 13.5625 C3.07087891 14.74392578 3.07925781 15.92535156 3.08789062 17.14257812 C3.10392999 22.86863072 3.0510705 28.36394482 2 34 C1.67 34 1.34 34 1 34 C0.04956543 22.64570132 -0.11033706 11.38923617 0 0 Z " fill="#A2B2C1" transform="translate(0,104)"/>
<path d="M0 0 C0.33 0 0.66 0 1 0 C1 13.53 1 27.06 1 41 C0.67 41 0.34 41 0 41 C-0.02505615 40.30438965 -0.0501123 39.6087793 -0.07592773 38.89208984 C-0.19245974 35.71956545 -0.31492568 32.54729645 -0.4375 29.375 C-0.47681641 28.28058594 -0.51613281 27.18617187 -0.55664062 26.05859375 C-0.59853516 24.99511719 -0.64042969 23.93164062 -0.68359375 22.8359375 C-0.72025146 21.86188965 -0.75690918 20.8878418 -0.79467773 19.88427734 C-1.17785081 14.26196287 -1.17785081 14.26196287 -3 9 C-2.44140625 6.8359375 -2.44140625 6.8359375 -1.5625 4.375 C-1.27503906 3.55773437 -0.98757812 2.74046875 -0.69140625 1.8984375 C-0.46324219 1.27195312 -0.23507813 0.64546875 0 0 Z " fill="#D4887D" transform="translate(149,72)"/>
<path d="M0 0 C0.66 0.33 1.32 0.66 2 1 C1.60167969 1.45890625 1.20335938 1.9178125 0.79296875 2.390625 C-2.5497247 6.24567646 -2.5497247 6.24567646 -5.625 10.3125 C-7.23677256 12.2905845 -8.68090325 12.98539517 -11 14 C-11.99 14.66 -12.98 15.32 -14 16 C-14.66 15.34 -15.32 14.68 -16 14 C-10.96965614 8.76433598 -6.07070905 4.00408469 0 0 Z " fill="#488ABA" transform="translate(68,53)"/>
<path d="M0 0 C0.66 0 1.32 0 2 0 C1.73517462 3.88410563 1.46605993 5.5462048 -1.375 8.3125 C-5.29864774 10.83484497 -8.11949884 11.11624119 -12.6875 11.0625 C-13.68136719 11.05347656 -14.67523438 11.04445313 -15.69921875 11.03515625 C-16.83810547 11.01775391 -16.83810547 11.01775391 -18 11 C-18 10.67 -18 10.34 -18 10 C-17.3709375 9.9484375 -16.741875 9.896875 -16.09375 9.84375 C-9.29944419 8.94329983 -6.06971249 6.83438201 -1.59375 1.6796875 C-1.0678125 1.12539062 -0.541875 0.57109375 0 0 Z " fill="#F4B165" transform="translate(111,92)"/>
<path d="M0 0 C1.32 0.33 2.64 0.66 4 1 C4.33 2.32 4.66 3.64 5 5 C3.68 5 2.36 5 1 5 C0.67 6.98 0.34 8.96 0 11 C-0.66 11 -1.32 11 -2 11 C-2.33 12.32 -2.66 13.64 -3 15 C-3.99 15 -4.98 15 -6 15 C-5.39644592 11.14974121 -4.23227397 8.13898841 -2.4375 4.6875 C-1.98246094 3.80449219 -1.52742188 2.92148438 -1.05859375 2.01171875 C-0.53458984 1.01591797 -0.53458984 1.01591797 0 0 Z " fill="#EAEEF0" transform="translate(74,150)"/>
<path d="M0 0 C6.27 0.33 12.54 0.66 19 1 C14.46780033 3.26609984 12.82227075 2.92735976 8 2 C8 3.98 8 5.96 8 8 C7.34 7.67 6.68 7.34 6 7 C6 6.34 6 5.68 6 5 C4.68 5 3.36 5 2 5 C2 4.34 2 3.68 2 3 C1.34 3 0.68 3 0 3 C0 2.01 0 1.02 0 0 Z " fill="#D57D7B" transform="translate(83,117)"/>
<path d="M0 0 C1.98 0.66 3.96 1.32 6 2 C4.35573843 5.57868696 3.16745344 6.90521504 -0.3125 8.875 C-4.14072979 10.04293451 -6.18358025 10.0239175 -10 9 C-10 8.67 -10 8.34 -10 8 C-7.03 7.01 -4.06 6.02 -1 5 C-0.67 3.35 -0.34 1.7 0 0 Z " fill="#C875B3" transform="translate(104,77)"/>
<path d="M0 0 C-3.33333333 3.33333333 -6.66666667 6.66666667 -10 10 C-10 9.01 -10 8.02 -10 7 C-10.99 6.67 -11.98 6.34 -13 6 C-4.36708861 -1.4556962 -4.36708861 -1.4556962 0 0 Z " fill="#ABB8C3" transform="translate(23,3)"/>
<path d="M0 0 C0.69738281 0.00902344 1.39476562 0.01804688 2.11328125 0.02734375 C3.82566958 0.05080112 5.53788004 0.08666896 7.25 0.125 C7.25 0.455 7.25 0.785 7.25 1.125 C12.695 1.62 12.695 1.62 18.25 2.125 C18.25 2.455 18.25 2.785 18.25 3.125 C8.18395765 3.23349626 -1.72112823 3.1017249 -11.75 2.125 C-8.00764681 -0.32489101 -4.30774581 -0.10586143 0 0 Z " fill="#75899C" transform="translate(57.75,188.875)"/>
<path d="M0 0 C0.99 0 1.98 0 3 0 C3 4.62 3 9.24 3 14 C2.01 14.33 1.02 14.66 0 15 C0 10.05 0 5.1 0 0 Z " fill="#E3E7EA" transform="translate(133,150)"/>
<path d="M0 0 C0.33 0 0.66 0 1 0 C1.48372093 7.25581395 1.48372093 7.25581395 -0.625 10.5 C-3.60098323 12.37956836 -5.54330418 12.31424507 -9 12 C-8.67 11.01 -8.34 10.02 -8 9 C-7.175 8.71125 -6.35 8.4225 -5.5 8.125 C-4.2625 7.568125 -4.2625 7.568125 -3 7 C-2.10613836 4.45224694 -2.10613836 4.45224694 -2 2 C-1.34 2 -0.68 2 0 2 C0 1.34 0 0.68 0 0 Z " fill="#E3E7EA" transform="translate(113,153)"/>
<path d="M0 0 C0.33 0 0.66 0 1 0 C1.53699151 7.11513755 -0.30292366 12.44995746 -3 19 C-3.33 19 -3.66 19 -4 19 C-4.53699151 11.88486245 -2.69707634 6.55004254 0 0 Z " fill="#5C84D1" transform="translate(46,76)"/>
<path d="M0 0 C0.66 0 1.32 0 2 0 C0.94124926 3.40312738 -0.00902154 6.01353231 -2 9 C-6.455 8.01 -6.455 8.01 -11 7 C-8.61653555 5.80826778 -6.22365569 4.6346615 -3.8125 3.5 C-0.9087487 2.29978656 -0.9087487 2.29978656 0 0 Z " fill="#6C8FE8" transform="translate(112,62)"/>
<path d="M0 0 C4.75 0.75 4.75 0.75 7 3 C4.3401439 6.44216672 1.09711714 6.99504674 -3 8 C-1.125 2.25 -1.125 2.25 0 0 Z " fill="#C57CCE" transform="translate(81,89)"/>
<path d="M0 0 C0.33 0 0.66 0 1 0 C1 4.62 1 9.24 1 14 C0.34 14 -0.32 14 -1 14 C-3.29648649 11.4385343 -4 10.52032428 -4 7 C-3.34 6.67 -2.68 6.34 -2 6 C-1.27306096 4.02111039 -0.60183749 2.02045442 0 0 Z " fill="#4F667E" transform="translate(131,151)"/>
<path d="M0 0 C1.65 0 3.3 0 5 0 C1.04297724 4.29619614 -1.86020672 6.86045363 -7.8125 7.125 C-8.534375 7.08375 -9.25625 7.0425 -10 7 C-10 6.34 -10 5.68 -10 5 C-8.70990357 4.49596232 -7.41786211 3.99690074 -6.125 3.5 C-5.04605469 3.08234375 -5.04605469 3.08234375 -3.9453125 2.65625 C-2 2 -2 2 0 2 C0 1.34 0 0.68 0 0 Z " fill="#D77BA9" transform="translate(87,92)"/>
<path d="M0 0 C6.71700347 -0.31985731 11.75726932 0.5206176 18 3 C17.67 3.66 17.34 4.32 17 5 C11.0870696 4.35729017 5.65755469 2.80996216 0 1 C0 0.67 0 0.34 0 0 Z " fill="#3EA9C8" transform="translate(81,29)"/>
<path d="M0 0 C-1.47797262 3.67056937 -3.47615477 5.41085783 -6.625 7.75 C-7.44226563 8.36359375 -8.25953125 8.9771875 -9.1015625 9.609375 C-9.72804688 10.06828125 -10.35453125 10.5271875 -11 11 C-11.66 10.67 -12.32 10.34 -13 10 C-4.78082192 0 -4.78082192 0 0 0 Z " fill="#B86061" transform="translate(134,98)"/>
<path d="M0 0 C0.33 0 0.66 0 1 0 C0.85892253 1.45880109 0.71197585 2.91703551 0.5625 4.375 C0.48128906 5.18710938 0.40007812 5.99921875 0.31640625 6.8359375 C0 9 0 9 -1 11 C-1.66 11 -2.32 11 -3 11 C-3.2475 11.969375 -3.495 12.93875 -3.75 13.9375 C-4.1625 14.948125 -4.575 15.95875 -5 17 C-7.078125 17.69140625 -7.078125 17.69140625 -9 18 C-8.60167969 17.3709375 -8.20335937 16.741875 -7.79296875 16.09375 C-4.5403507 10.83891208 -1.95448384 5.86345152 0 0 Z " fill="#BF5F93" transform="translate(148,69)"/>
<path d="M0 0 C1.2065625 0.0309375 1.2065625 0.0309375 2.4375 0.0625 C1.53265208 1.21768918 0.6130794 2.36135406 -0.3125 3.5 C-0.82296875 4.13808594 -1.3334375 4.77617188 -1.859375 5.43359375 C-3.78360317 7.27396794 -4.93666295 7.76896131 -7.5625 8.0625 C-8.2225 7.7325 -8.8825 7.4025 -9.5625 7.0625 C-9.5625 6.4025 -9.5625 5.7425 -9.5625 5.0625 C-7.59527992 3.68126037 -5.59381672 2.34761874 -3.5625 1.0625 C-2.5625 0.0625 -2.5625 0.0625 0 0 Z " fill="#EB8C85" transform="translate(94.5625,93.9375)"/>
<path d="M0 0 C2.97 0.33 5.94 0.66 9 1 C9 1.66 9 2.32 9 3 C5.32589215 4.17571451 1.83070817 4.07366746 -2 4 C-1.34 2.68 -0.68 1.36 0 0 Z " fill="#8483F0" transform="translate(95,75)"/>
<path d="M0 0 C0.33 0.66 0.66 1.32 1 2 C-1.62840242 6.18597423 -4.28153127 9.67294903 -8 13 C-8.66 13 -9.32 13 -10 13 C-8.48446596 9.52224821 -6.4226544 7.0442016 -3.875 4.25 C-3.15054688 3.45078125 -2.42609375 2.6515625 -1.6796875 1.828125 C-0.84824219 0.92320312 -0.84824219 0.92320312 0 0 Z " fill="#C0CAD3" transform="translate(187,172)"/>
<path d="M0 0 C1.65 0 3.3 0 5 0 C5.66 1.32 6.32 2.64 7 4 C6 5 6 5 2.9375 5.0625 C1.4834375 5.0315625 1.4834375 5.0315625 0 5 C0 3.35 0 1.7 0 0 Z " fill="#708498" transform="translate(120,152)"/>
<path d="M0 0 C0.515625 0.165 1.03125 0.33 1.5625 0.5 C5.87709151 1.38504441 9.82126148 1.39291284 14 0 C13.34 1.32 12.68 2.64 12 4 C8.96663814 4.22893297 6.02534949 4.36475845 3 4 C0.9375 2 0.9375 2 0 0 Z " fill="#9674EA" transform="translate(89,79)"/>
<path d="M0 0 C3.93548431 3.06093224 6.68116787 5.49115974 9 10 C4.89041233 8.54955729 1.56741255 6.48889248 -2 4 C-1.34 3.67 -0.68 3.34 0 3 C0 2.01 0 1.02 0 0 Z " fill="#567BBA" transform="translate(115,44)"/>
<path d="M0 0 C0.66 0.33 1.32 0.66 2 1 C1.21258141 2.46063143 0.4199095 3.91843173 -0.375 5.375 C-0.81585937 6.18710937 -1.25671875 6.99921875 -1.7109375 7.8359375 C-3 10 -3 10 -5 12 C-5.25 4.375 -5.25 4.375 -3 1 C-2.34 1 -1.68 1 -1 1 C-0.67 0.67 -0.34 0.34 0 0 Z " fill="#A3B2BE" transform="translate(6,19)"/>
<path d="M0 0 C1.32 0 2.64 0 4 0 C4 4 4 4 2.6875 5.75 C1 7 1 7 -2 7 C-2.125 4.625 -2.125 4.625 -2 2 C-1.34 1.34 -0.68 0.68 0 0 Z " fill="#D7DDE1" transform="translate(9,10)"/>
<path d="M0 0 C0.33 1.32 0.66 2.64 1 4 C2.65 4 4.3 4 6 4 C6 4.33 6 4.66 6 5 C5.05125 5.103125 4.1025 5.20625 3.125 5.3125 C-0.29107501 5.68539295 -0.29107501 5.68539295 -2 9 C-2.66 9 -3.32 9 -4 9 C-3.46930939 5.17902761 -2.50298434 2.93828597 0 0 Z " fill="#F1F3F5" transform="translate(142,156)"/>
<path d="M0 0 C1.1446875 0.3403125 1.1446875 0.3403125 2.3125 0.6875 C1.9825 1.3475 1.6525 2.0075 1.3125 2.6875 C-0.75 3.3125 -0.75 3.3125 -2.6875 3.6875 C-2.6875 5.6675 -2.6875 7.6475 -2.6875 9.6875 C-3.6775 9.0275 -4.6675 8.3675 -5.6875 7.6875 C-6.13211083 4.7975296 -6.07501234 3.29936159 -4.5 0.8125 C-2.6875 -0.3125 -2.6875 -0.3125 0 0 Z " fill="#64798E" transform="translate(107.6875,152.3125)"/>
<path d="M0 0 C0.99 0.33 1.98 0.66 3 1 C2.67 1.99 2.34 2.98 2 4 C0.01751285 4.71706982 -1.98415349 5.38290413 -4 6 C-4.66 6.66 -5.32 7.32 -6 8 C-8.125 7.625 -8.125 7.625 -10 7 C-9.46375 6.773125 -8.9275 6.54625 -8.375 6.3125 C-6.22369799 5.12362257 -4.74962458 3.93934501 -2.9375 2.3125 C-1.968125 1.549375 -0.99875 0.78625 0 0 Z " fill="#5AACE9" transform="translate(89,72)"/>
<path d="M0 0 C1.32 0.33 2.64 0.66 4 1 C3.50351065 5.46840411 3.31012244 6.68987756 0 10 C0 6.7 0 3.4 0 0 Z " fill="#4B637A" transform="translate(136,155)"/>
<path d="M0 0 C0.33 0 0.66 0 1 0 C1.2475 1.093125 1.495 2.18625 1.75 3.3125 C3.02002851 7.05908409 3.65756352 8.10595266 7 10 C4.125 10.125 4.125 10.125 1 10 C-1 8 -1 8 -1.1875 4.4375 C-1 1 -1 1 0 0 Z " fill="#F7F9F9" transform="translate(101,154)"/>
<path d="M0 0 C0.33 0 0.66 0 1 0 C1 4.62 1 9.24 1 14 C-0.32 14.33 -1.64 14.66 -3 15 C-2.690625 14.01 -2.38125 13.02 -2.0625 12 C-0.91566793 8.02268878 -0.43287644 4.11232621 0 0 Z " fill="#51687F" transform="translate(51,150)"/>
<path d="M0 0 C0.66 0.33 1.32 0.66 2 1 C1.319375 1.804375 1.319375 1.804375 0.625 2.625 C-1.21688312 5.31698302 -2.07971933 7.88520388 -3 11 C-3.66 10.67 -4.32 10.34 -5 10 C-4.38545304 6.00544473 -2.29353263 3.25533664 0 0 Z " fill="#96A7B5" transform="translate(8,19)"/>
<path d="M0 0 C1.98 0.99 1.98 0.99 4 2 C3.67 3.65 3.34 5.3 3 7 C2.34 7 1.68 7 1 7 C0.67 7.66 0.34 8.32 0 9 C0 6.03 0 3.06 0 0 Z " fill="#E7EBEE" transform="translate(126,151)"/>
<path d="M0 0 C0.556875 0.28875 1.11375 0.5775 1.6875 0.875 C4.08494645 2.0413253 6.51596939 3.0339881 9 4 C9 4.66 9 5.32 9 6 C1.25 4.125 1.25 4.125 -1 3 C-0.67 2.01 -0.34 1.02 0 0 Z " fill="#7E84E4" transform="translate(85,80)"/>
<path d="M0 0 C1.32 0.33 2.64 0.66 4 1 C3.67 2.65 3.34 4.3 3 6 C2.01 6.33 1.02 6.66 0 7 C0 4.69 0 2.38 0 0 Z " fill="#50657C" transform="translate(66,156)"/>
<path d="M0 0 C2.64 0.33 5.28 0.66 8 1 C8.33 1.99 8.66 2.98 9 4 C6.69 4 4.38 4 2 4 C1.34 2.68 0.68 1.36 0 0 Z " fill="#DEE4E8" transform="translate(38,161)"/>
<path d="M0 0 C2.31 0.33 4.62 0.66 7 1 C5.8125 2.5625 5.8125 2.5625 4 4 C1.3125 3.6875 1.3125 3.6875 -1 3 C-0.67 2.01 -0.34 1.02 0 0 Z " fill="#73889C" transform="translate(42,152)"/>
<path d="M0 0 C0.66 0.33 1.32 0.66 2 1 C1.34 2.32 0.68 3.64 0 5 C-0.66 5 -1.32 5 -2 5 C-2.33 6.65 -2.66 8.3 -3 10 C-3.33 10 -3.66 10 -4 10 C-4.25 7.25 -4.25 7.25 -4 4 C-2 1.625 -2 1.625 0 0 Z " fill="#E1E6EA" transform="translate(103,150)"/>
<path d="M0 0 C1.98 0.66 3.96 1.32 6 2 C5 4 5 4 1.9375 5.125 C0.968125 5.41375 -0.00125 5.7025 -1 6 C-0.67 4.02 -0.34 2.04 0 0 Z " fill="#BD70C3" transform="translate(104,77)"/>
<path d="M0 0 C1.65 0 3.3 0 5 0 C5 1.32 5 2.64 5 4 C3.35 4 1.7 4 0 4 C0 2.68 0 1.36 0 0 Z " fill="#546C85" transform="translate(89,153)"/>
<path d="M0 0 C3 0 3 0 4.38671875 1.3125 C5.59114583 2.875 6.79557292 4.4375 8 6 C6.68 6 5.36 6 4 6 C4 5.34 4 4.68 4 4 C3.01 4 2.02 4 1 4 C0.67 2.68 0.34 1.36 0 0 Z " fill="#C57266" transform="translate(86,122)"/>
<path d="M0 0 C2.05078125 0.03255208 4.1015625 0.06510417 6.15234375 0.09765625 C6.15234375 0.42765625 6.15234375 0.75765625 6.15234375 1.09765625 C3.84234375 1.75765625 1.53234375 2.41765625 -0.84765625 3.09765625 C-0.84765625 3.75765625 -0.84765625 4.41765625 -0.84765625 5.09765625 C-1.83765625 5.09765625 -2.82765625 5.09765625 -3.84765625 5.09765625 C-2.72914438 0.14424653 -2.72914438 0.14424653 0 0 Z " fill="#60849D" transform="translate(92.84765625,66.90234375)"/>
<path d="M0 0 C1.65 1.65 3.3 3.3 5 5 C4.67 5.66 4.34 6.32 4 7 C3.01 6.34 2.02 5.68 1 5 C0.67 5.99 0.34 6.98 0 8 C0 5.36 0 2.72 0 0 Z " fill="#546A80" transform="translate(56,156)"/>
<path d="M0 0 C1.32 0.33 2.64 0.66 4 1 C4.33 2.32 4.66 3.64 5 5 C4.01 5 3.02 5 2 5 C2 4.34 2 3.68 2 3 C1.34 3 0.68 3 0 3 C0 2.01 0 1.02 0 0 Z " fill="#CC717D" transform="translate(83,117)"/>
<path d="M0 0 C0.33 0 0.66 0 1 0 C1 2.64 1 5.28 1 8 C0.34 8 -0.32 8 -1 8 C-1.625 5.125 -1.625 5.125 -2 2 C-1.34 1.34 -0.68 0.68 0 0 Z " fill="#526980" transform="translate(84,157)"/>
<path d="M0 0 C0.33 1.32 0.66 2.64 1 4 C-0.65 5.32 -2.3 6.64 -4 8 C-4.66 7.67 -5.32 7.34 -6 7 C-4.02 4.69 -2.04 2.38 0 0 Z " fill="#AA6264" transform="translate(127,101)"/>
<path d="M0 0 C-0.99 1.485 -0.99 1.485 -2 3 C-4.625 3.1875 -4.625 3.1875 -7 3 C-7 2.34 -7 1.68 -7 1 C-3.375 -1.125 -3.375 -1.125 0 0 Z " fill="#D083BB" transform="translate(84,96)"/>
<path d="M0 0 C1.98 0.495 1.98 0.495 4 1 C4 1.66 4 2.32 4 3 C2.35 3.66 0.7 4.32 -1 5 C-0.67 3.35 -0.34 1.7 0 0 Z " fill="#B576E8" transform="translate(81,89)"/>
<path d="M0 0 C0.99 0.33 1.98 0.66 3 1 C0.47211993 3.79872437 -1.20411134 5.45773019 -5 6 C-4.67 5.34 -4.34 4.68 -4 4 C-3.34 4 -2.68 4 -2 4 C-1.34 2.68 -0.68 1.36 0 0 Z " fill="#DC7E9F" transform="translate(109,80)"/>
<path d="M0 0 C-1.39332574 3.36720387 -2.9789286 4.9859524 -6 7 C-6.66 6.67 -7.32 6.34 -8 6 C-7.0479279 4.99403703 -6.08812654 3.99538437 -5.125 3 C-4.59132813 2.443125 -4.05765625 1.88625 -3.5078125 1.3125 C-2 0 -2 0 0 0 Z " fill="#4EB7EA" transform="translate(89,71)"/>
</svg>
